<svg xmlns="http://www.w3.org/2000/svg" xmlns:xlink="http://www.w3.org/1999/xlink" width="161.346" height="291.5" viewBox="0 0 161.346 291.5">
  <defs>
    <filter id="Subtraction_3" x="0" y="84.379" width="126.544" height="167.288" filterUnits="userSpaceOnUse">
      <feOffset dy="3" input="SourceAlpha"/>
      <feGaussianBlur stdDeviation="3" result="blur"/>
      <feFlood flood-opacity="0.161"/>
      <feComposite operator="in" in2="blur"/>
      <feComposite in="SourceGraphic"/>
    </filter>
    <filter id="Subtraction_5" x="36.843" y="129.807" width="124.502" height="161.694" filterUnits="userSpaceOnUse">
      <feOffset dy="3" input="SourceAlpha"/>
      <feGaussianBlur stdDeviation="3" result="blur-2"/>
      <feFlood flood-opacity="0.161"/>
      <feComposite operator="in" in2="blur-2"/>
      <feComposite in="SourceGraphic"/>
    </filter>
  </defs>
  <g id="Group_9" data-name="Group 9" transform="translate(9.5 -533)">
    <path id="Subtraction_7" data-name="Subtraction 7" d="M-4124.8-3082.417H-4196V-3202h71.2v119.582Z" transform="translate(4195.5 3894.918)" fill="#2b7133"/>
    <path id="Subtraction_2" data-name="Subtraction 2" d="M-4015.673-2998.481l-91.827-.382v-163.82l14.987-25.317,44.626,75.778-17.369-.018,34.052,57.026-17.59.084,33.122,56.65h0Z" transform="translate(4107 3721)" fill="#2b7133"/>
    <g transform="matrix(1, 0, 0, 1, -9.5, 533)" filter="url(#Subtraction_3)">
      <path id="Subtraction_3-2" data-name="Subtraction 3" d="M-3940.321-2973.334a22.474,22.474,0,0,1-9.268-2.136,4.2,4.2,0,0,1-1.1,1.138,3.532,3.532,0,0,1-1.971.6,3.543,3.543,0,0,1-.754-.081v-.066c0-.76,0-1.546.027-2.326a2.781,2.781,0,0,1-.492-.283,4.085,4.085,0,0,1-1.107-1.138,22.4,22.4,0,0,1-9.269,2.146,15.552,15.552,0,0,1-11.157-4.361,15.828,15.828,0,0,1-3.8-6,23.526,23.526,0,0,1-13.289-6.774,25.589,25.589,0,0,1-6.986-11.934l-.007,0-.007,0v-95.5a26.365,26.365,0,0,1,6.721-4.923,26.37,26.37,0,0,1,7.938-2.587,21.705,21.705,0,0,1,4.084-6.591,20.383,20.383,0,0,1,15.309-6.926,20.287,20.287,0,0,1,7.282,1.349,10.324,10.324,0,0,1,7.358-2.884h.413a12.185,12.185,0,0,1,5.137,1.117,6.95,6.95,0,0,1,3.19,2.795,20.544,20.544,0,0,1,2.938-.212,20.479,20.479,0,0,1,15.344,6.923,21.866,21.866,0,0,1,4.08,6.6,26.46,26.46,0,0,1,15.669,8.563,28.073,28.073,0,0,1,4.9,7.661,28.876,28.876,0,0,1,2.216,8.59,29.34,29.34,0,0,1-.452,8.808,28.6,28.6,0,0,1-3.1,8.317,17.584,17.584,0,0,1,4.783,3.77,18.482,18.482,0,0,1,4.722,12.8,17.668,17.668,0,0,1-5.252,12.355l-.036.022a18.782,18.782,0,0,1,3.487,14.064,24.572,24.572,0,0,1-7.248,14.252,24.221,24.221,0,0,1-5.041,3.811,25.6,25.6,0,0,1-7.013,11.93,23.449,23.449,0,0,1-13.289,6.777,15.949,15.949,0,0,1-3.8,6A15.589,15.589,0,0,1-3940.321-2973.334Z" transform="translate(4008.5 3213)" fill="#61bf26"/>
    </g>
    <path id="Subtraction_6" data-name="Subtraction 6" d="M-4086.593-3044.844h-22.184c2.341-20.638,4.443-42.16,6.247-63.97-5.124-4.494-10.541-9.114-16.1-13.732-5.022-4.157-10.045-8.221-14.928-12.08a2.452,2.452,0,0,0,.337-.66c5.447,3.692,11.171,7.457,17.015,11.189,4.786,3.06,9.563,6.041,14.2,8.86.653-8.163,1.259-16.361,1.8-24.365-3.276-4.159-6.8-8.453-10.485-12.761-2.618-3.044-5.254-6.032-7.837-8.883a2.1,2.1,0,0,0,.444-.576c3.028,2.76,6.211,5.567,9.461,8.341,2.987,2.543,5.968,5.019,8.859,7.359.562-8.589,1.071-17.213,1.511-25.632-1.8-2.973-3.748-6.043-5.8-9.126-1.72-2.576-3.454-5.073-5.152-7.42a2.552,2.552,0,0,0,.243-.133c2.316,2.682,4.308,4.9,6.269,6.99,1.56,1.656,3.138,3.3,4.692,4.873.429-8.477.811-17.034,1.134-25.433a2.532,2.532,0,0,0,.377.032h.243c.2,8.4.455,17,.767,25.573,1.888-1.888,3.437-3.494,4.872-5.054,2.137-2.3,4.211-4.613,6.163-6.87a1.909,1.909,0,0,0,.177.253c-1.831,2.557-3.461,4.906-4.984,7.181s-3.11,4.747-4.709,7.34l-1.33,2.379c.327,8.424.71,16.979,1.139,25.427,3.037-2.44,6.18-5.046,9.338-7.748,2.944-2.521,5.829-5.055,8.576-7.531l.673.475c-2.35,2.6-4.766,5.348-7.181,8.169-3.887,4.56-7.6,9.091-11.048,13.467.415,7.641.882,15.454,1.387,23.221,4.023-2.453,8.159-5.039,12.293-7.686,5.165-3.307,10.292-6.668,15.239-9.989a2.6,2.6,0,0,0,.5.727c-4.37,3.466-8.854,7.1-13.329,10.792-4.9,4.078-9.718,8.173-14.308,12.173,1.533,22.114,3.359,43.926,5.426,64.829Z" transform="translate(4142 3857.344)" fill="#947d00"/>
    <g transform="matrix(1, 0, 0, 1, -9.5, 533)" filter="url(#Subtraction_5)">
      <path id="Subtraction_5-2" data-name="Subtraction 5" d="M-3999.154-3058.307h-106.5l20.094-35.994-12.776.062,25.473-46.6-13.153-.014,33.893-61.15,33.764,61.23-13.138-.014,25.764,46.075-13.307.066,19.889,36.334Z" transform="translate(4151.5 3337.81)" fill="#398b39"/>
    </g>
  </g>
</svg>
