<svg xmlns="http://www.w3.org/2000/svg" xmlns:xlink="http://www.w3.org/1999/xlink" width="176.716" height="296.323" viewBox="0 0 176.716 296.323">
  <defs>
    <clipPath id="clip-path">
      <rect width="176.716" height="296.323" fill="none"/>
    </clipPath>
    <filter id="Subtraction_9" x="3.718" y="46.815" width="172.998" height="237.594" filterUnits="userSpaceOnUse">
      <feOffset dy="3" input="SourceAlpha"/>
      <feGaussianBlur stdDeviation="3" result="blur"/>
      <feFlood flood-opacity="0.161"/>
      <feComposite operator="in" in2="blur"/>
      <feComposite in="SourceGraphic"/>
    </filter>
    <filter id="Path_19" x="0" y="83.722" width="145.869" height="166.588" filterUnits="userSpaceOnUse">
      <feOffset dy="3" input="SourceAlpha"/>
      <feGaussianBlur stdDeviation="3" result="blur-2"/>
      <feFlood flood-opacity="0.161"/>
      <feComposite operator="in" in2="blur-2"/>
      <feComposite in="SourceGraphic"/>
    </filter>
  </defs>
  <g id="Repeat_Grid_2" data-name="Repeat Grid 2" clip-path="url(#clip-path)">
    <g id="Group_12" data-name="Group 12" transform="translate(-2374.784 -3486.379)">
      <path id="Subtraction_10" data-name="Subtraction 10" d="M94.208,219.992h0L0,219.564l35.351-64.618-18.015.1L53.243,88l-18.535-.022L82.492,0,94.208,21.681v198.31Z" transform="translate(2448.292 3486.379)" fill="#184120"/>
      <path id="Path_47" data-name="Path 47" d="M1083.457,619.375a1.845,1.845,0,0,1,.5.4l.75-.935a1.939,1.939,0,0,1-.666-.582l-.789.983A1.639,1.639,0,0,1,1083.457,619.375Z" transform="translate(1308.17 3162.926)" fill="#606054"/>
      <g transform="matrix(1, 0, 0, 1, 2374.78, 3486.38)" filter="url(#Subtraction_9)">
        <path id="Subtraction_9-2" data-name="Subtraction 9" d="M155,219.595h0L0,219.011l42.648-64.455-21.732.093L64.235,87.778l-22.368-.022L99.519,0,155,84.883v2.986l-20.4-.02,20.4,30.78V219.594Z" transform="translate(12.72 52.82)" fill="#398b39"/>
      </g>
      <g transform="matrix(1, 0, 0, 1, 2374.78, 3486.38)" filter="url(#Path_19)">
        <path id="Path_19-2" data-name="Path 19" d="M1163.329,510.7c6.314,7.8,4.691,20.136-3.919,28.182a25.215,25.215,0,0,1-5.26,3.792,25.194,25.194,0,0,1-7.31,11.873,24.916,24.916,0,0,1-13.849,6.746,15.636,15.636,0,0,1-3.968,5.974c-5.37,5.017-13.633,5.568-21.309,2.2a4.15,4.15,0,0,1-1.151,1.133,3.841,3.841,0,0,1-2.839.516c0-.794,0-1.583.026-2.381a3.073,3.073,0,0,1-.511-.282,4.177,4.177,0,0,1-1.155-1.133c-7.672,3.377-15.93,2.826-21.3-2.2a15.6,15.6,0,0,1-3.968-5.974,24.9,24.9,0,0,1-13.84-6.741,25.24,25.24,0,0,1-7.31-11.878,25.188,25.188,0,0,1-5.255-3.792c-8.606-8.042-10.229-20.383-3.92-28.182l-.035-.031a17.673,17.673,0,0,1-.556-25.039,18.283,18.283,0,0,1,4.991-3.752A27.909,27.909,0,0,1,1070.97,438a21.636,21.636,0,0,1,4.255-6.561,21.939,21.939,0,0,1,23.522-5.555,11.054,11.054,0,0,1,7.672-2.87h.441c3.995.026,7.39,1.64,8.681,3.893a21.93,21.93,0,0,1,19.078,6.684,21.71,21.71,0,0,1,4.255,6.565,27.909,27.909,0,0,1,20.061,41.74,18.352,18.352,0,0,1,4.991,3.752,17.667,17.667,0,0,1-.556,25.034Z" transform="translate(-1031.98 -333.29)" fill="#52a91c"/>
      </g>
      <g id="Group_11" data-name="Group 11" transform="translate(-12 -47)">
        <path id="Subtraction_11" data-name="Subtraction 11" d="M58.059,193.935H37.948c1.905-17.552,3.643-35.783,5.165-54.187-5.1-4.473-10.491-9.072-16.022-13.668-5.013-4.147-10.012-8.192-14.859-12.023a2.435,2.435,0,0,0,.336-.657c5.415,3.669,11.112,7.416,16.934,11.137,4.744,3.041,9.49,6.008,14.108,8.817.643-8.071,1.246-16.23,1.79-24.249-3.277-4.159-6.789-8.433-10.44-12.7-2.606-3.034-5.229-6.008-7.795-8.84a2.1,2.1,0,0,0,.441-.573c3,2.733,6.164,5.526,9.418,8.3,2.948,2.508,5.914,4.972,8.817,7.323C46.4,94.1,46.9,85.521,47.345,77.1c-1.787-2.959-3.73-6.015-5.776-9.083-1.708-2.56-3.433-5.045-5.127-7.384.081-.04.162-.084.242-.132,2.315,2.68,4.3,4.891,6.239,6.957,1.543,1.638,3.114,3.27,4.669,4.85.425-8.437.805-16.954,1.129-25.313a2.5,2.5,0,0,0,.375.031h.242c.194,8.364.45,16.927.763,25.453,1.771-1.8,3.271-3.338,4.828-5.031,2.134-2.3,4.2-4.6,6.133-6.838a1.962,1.962,0,0,0,.176.251c-1.815,2.536-3.437,4.873-4.96,7.147s-3.062,4.674-4.687,7.306l-1.322,2.367c.32,8.28.7,16.8,1.133,25.308,3.032-2.436,6.159-5.03,9.294-7.711,2.937-2.515,5.809-5.037,8.536-7.5l.67.472c-2.347,2.6-4.751,5.332-7.147,8.13-3.872,4.539-7.571,9.049-11,13.4.412,7.6.876,15.371,1.38,23.112,4.011-2.445,8.128-5.019,12.235-7.65,5.173-3.312,10.276-6.657,15.168-9.942a2.6,2.6,0,0,0,.5.724c-4.316,3.423-8.765,7.036-13.223,10.74-4.886,4.065-9.678,8.141-14.241,12.116,1.3,18.69,2.805,37.209,4.486,55.043Z" transform="translate(2412 3611.565)" fill="#f4f4e1"/>
        <rect id="Rectangle_4" data-name="Rectangle 4" width="7.054" height="0.882" rx="0.441" transform="translate(2454.637 3761.656)" fill="#606054"/>
        <path id="Path_21" data-name="Path 21" d="M1187.814,683h-5.842a2.472,2.472,0,0,1-.062.882h5.9a.308.308,0,0,0,.308-.309v-.265A.308.308,0,0,0,1187.814,683Z" transform="translate(1274.01 3055.729)" fill="#606054"/>
        <rect id="Rectangle_5" data-name="Rectangle 5" width="4.409" height="0.882" rx="0.441" transform="translate(2458.604 3728.147)" fill="#606054"/>
        <path id="Path_22" data-name="Path 22" d="M1187.7,647h-2.835a2.367,2.367,0,0,1,0,.309v.551h2.87a.309.309,0,0,0,.309-.309v-.265a.309.309,0,0,0-.344-.287Z" transform="translate(1272.355 3075.86)" fill="#606054"/>
        <path id="Path_23" data-name="Path 23" d="M1192.652,617.212a1.654,1.654,0,0,1,0-.212h-4.343a.309.309,0,0,0-.309.309v.265a.309.309,0,0,0,.308.309h4.369a2.433,2.433,0,0,1-.026-.67Z" transform="translate(1270.604 3092.63)" fill="#606054"/>
        <path id="Path_24" data-name="Path 24" d="M1192.017,605h-4.665a2.4,2.4,0,0,1-.026.56,1.323,1.323,0,0,1-.026.322h4.718A2.483,2.483,0,0,1,1192.017,605Z" transform="translate(1270.996 3099.339)" fill="#606054"/>
        <path id="Path_25" data-name="Path 25" d="M1193.672,585h-2.363a.308.308,0,0,0-.309.309v.265a.308.308,0,0,0,.309.309h2.394A2.569,2.569,0,0,1,1193.672,585Z" transform="translate(1268.927 3110.521)" fill="#606054"/>
        <path id="Path_26" data-name="Path 26" d="M1190.4,592h-2.257a2.579,2.579,0,0,1-.031.882h2.288a.309.309,0,0,0,.309-.309v-.265A.309.309,0,0,0,1190.4,592Z" transform="translate(1270.543 3106.608)" fill="#606054"/>
        <path id="Path_27" data-name="Path 27" d="M1194.06,639h-6.728a.317.317,0,0,0-.322.309v.264a.318.318,0,0,0,.322.309h6.173a4.709,4.709,0,0,0,.555-.882Z" transform="translate(1271.158 3080.33)" fill="#606054"/>
        <path id="Path_28" data-name="Path 28" d="M1204,638" transform="translate(1261.659 3080.889)" fill="#f4f4e1"/>
        <rect id="Rectangle_6" data-name="Rectangle 6" width="4.409" height="0.882" rx="0.441" transform="translate(2456.4 3751.074)" fill="#606054"/>
        <path id="Path_29" data-name="Path 29" d="M1198.424,746h-6.115a.309.309,0,0,0-.309.309v.265a.309.309,0,0,0,.309.309h6.173a2.583,2.583,0,0,1-.057-.882Z" transform="translate(1268.368 3020.506)" fill="#606054"/>
        <path id="Path_30" data-name="Path 30" d="M1203.51,766.37a2.606,2.606,0,0,1,0-.37h-3.232a.309.309,0,0,0-.309.309v.264a.309.309,0,0,0,.309.309h3.258a2.208,2.208,0,0,1-.026-.511Z" transform="translate(1263.912 3009.324)" fill="#606054"/>
        <rect id="Rectangle_7" data-name="Rectangle 7" width="7.054" height="0.882" rx="0.441" transform="translate(2460.368 3786.346)" fill="#606054"/>
        <path id="Path_33" data-name="Path 33" d="M1207.88,820h-3.572a.309.309,0,0,0-.308.309v.265a.309.309,0,0,0,.309.309h3.66v-.035a2.483,2.483,0,0,1-.088-.846Z" transform="translate(1261.659 2979.132)" fill="#606054"/>
        <rect id="Rectangle_9" data-name="Rectangle 9" width="7.054" height="0.882" rx="0.441" transform="translate(2457.723 3746.225)" fill="#606054"/>
        <path id="Path_37" data-name="Path 37" d="M1193.631,551h-1.323a.309.309,0,0,0-.309.309v.265a.309.309,0,0,0,.309.309h1.353A2.582,2.582,0,0,1,1193.631,551Z" transform="translate(1268.368 3129.531)" fill="#606054"/>
        <path id="Path_38" data-name="Path 38" d="M1189.056,562h-4.136a2.043,2.043,0,0,1,.22.331,2.177,2.177,0,0,1,.194.326c.044.071.084.145.124.225h3.6a.309.309,0,0,0,.309-.309v-.264A.309.309,0,0,0,1189.056,562Z" transform="translate(1272.327 3123.381)" fill="#606054"/>
        <path id="Path_39" data-name="Path 39" d="M1192.959,532.456v-.035a2.776,2.776,0,0,1,.031-.441h-1.764a.29.29,0,0,1,0,.062,2.558,2.558,0,0,1-.026.82h1.808v-.176A1.438,1.438,0,0,1,1192.959,532.456Z" transform="translate(1268.816 3140.165)" fill="#606054"/>
        <path id="Path_40" data-name="Path 40" d="M1217,539.7Z" transform="translate(1254.391 3135.849)" fill="#606054"/>
        <path id="Path_41" data-name="Path 41" d="M1208.374,547.131a1.409,1.409,0,0,1,.106-.2,1.883,1.883,0,0,1,.234-.441.3.3,0,0,0-.071-.1l-.882-.785a2.057,2.057,0,0,1-.273.313.228.228,0,0,1-.035.031l-.027.026a1.706,1.706,0,0,1-.256.282l.913.794A.309.309,0,0,0,1208.374,547.131Z" transform="translate(1259.886 3132.544)" fill="#606054"/>
        <rect id="Rectangle_10" data-name="Rectangle 10" width="0.939" height="0.882" rx="0.441" transform="translate(2458.569 3682.768) rotate(137.91)" fill="#606054"/>
        <rect id="Rectangle_12" data-name="Rectangle 12" width="0.622" height="0.882" rx="0.311" transform="translate(2450.059 3674.555) rotate(-42.09)" fill="#606054"/>
        <path id="Path_42" data-name="Path 42" d="M1153.472,600.634a2.01,2.01,0,0,1-.362-.335c-.053-.049-.1-.1-.15-.154s-.057-.049-.079-.075l-1,.882a1.838,1.838,0,0,1,.176.278,1.939,1.939,0,0,1,.375.41l1.045-.943.026-.035A.178.178,0,0,0,1153.472,600.634Z" transform="translate(1290.799 3102.096)" fill="#606054"/>
        <path id="Path_43" data-name="Path 43" d="M1164.161,611.361l-.172-.194a.313.313,0,0,0-.441-.027l-1.358,1.23c.026.026.049.057.071.084a2.053,2.053,0,0,1,.326.353,2.251,2.251,0,0,1,.194.216l1.358-1.226a.309.309,0,0,0,.022-.436Z" transform="translate(1285.035 3095.95)" fill="#606054"/>
        <path id="Path_44" data-name="Path 44" d="M1171.968,616.731l-.057-.04a1.906,1.906,0,0,1-.489-.361l-1.036.939a.313.313,0,0,0,0,.441l.172.194a.317.317,0,0,0,.441.022l1.168-1.058Z" transform="translate(1280.504 3093.005)" fill="#606054"/>
        <path id="Path_45" data-name="Path 45" d="M1208.279,619.9a.383.383,0,0,0-.115-.079,1.972,1.972,0,0,1-.34.322,2.177,2.177,0,0,1-.265.216.333.333,0,0,0,.062.132l2.3,2.544h0a1.881,1.881,0,0,1,.388-.406,1.621,1.621,0,0,1,.216-.242Z" transform="translate(1259.668 3091.053)" fill="#606054"/>
        <path id="Path_46" data-name="Path 46" d="M1130.847,668.207l1.23-1.53a1.941,1.941,0,0,1-.692-.547l-1.235,1.539A1.886,1.886,0,0,1,1130.847,668.207Z" transform="translate(1302.949 3065.161)" fill="#606054"/>
        <path id="Path_48" data-name="Path 48" d="M1156.907,686.9l-.2-.168a.313.313,0,0,0-.441.048l-1.133,1.415a1.951,1.951,0,0,1,.6.666l1.226-1.53a.309.309,0,0,0-.044-.432Z" transform="translate(1288.982 3053.681)" fill="#606054"/>
        <path id="Path_49" data-name="Path 49" d="M1214.141,689.851l-.754-1.111a1.97,1.97,0,0,1-.251.146,1.845,1.845,0,0,1-.516.291l.789,1.168a.317.317,0,0,0,.441.084l.216-.15a.308.308,0,0,0,.075-.428Z" transform="translate(1256.839 3052.52)" fill="#606054"/>
        <rect id="Rectangle_670" data-name="Rectangle 670" width="7.054" height="0.882" rx="0.441" transform="translate(2452.368 3778.346)" fill="#606054"/>
        <rect id="Rectangle_671" data-name="Rectangle 671" width="11.054" height="0.882" rx="0.441" transform="translate(2452.368 3795.346)" fill="#606054"/>
      </g>
    </g>
  </g>
</svg>
